<svg xmlns="http://www.w3.org/2000/svg" viewBox="0 0 512 512">
  <defs>
    <linearGradient id="bg" x1="0" y1="0" x2="0" y2="1">
      <stop offset="0%" stop-color="#0B1020"/>
      <stop offset="100%" stop-color="#1F3B2C"/>
    </linearGradient>
    <clipPath id="rounded"><rect width="512" height="512" rx="112" ry="112"/></clipPath>
  </defs>
  <g clip-path="url(#rounded)">
    <rect width="512" height="512" fill="url(#bg)"/>
    <circle cx="256" cy="256" r="205" fill="none" stroke="#BFA46F" stroke-opacity="0.5" stroke-width="3"/>
    <g fill="#D6C7A1">
      <ellipse cx="256" cy="270" rx="82" ry="98"/>
      <rect x="166" y="298" width="180" height="42" rx="4"/>
      <rect x="118" y="340" width="276" height="62"/>
      <rect x="139" y="226" width="22" height="180"/>
      <rect x="351" y="226" width="22" height="180"/>
    </g>
    <g fill="#BFA46F">
      <polygon points="139,226 161,226 150,200"/>
      <polygon points="351,226 373,226 362,200"/>
      <rect x="253" y="148" width="6" height="32"/>
      <path d="M256 128 a18 18 0 1 0 0.1 0 a14 14 0 1 1 -0.1 0 z"/>
    </g>
    <path d="M222 402 v-46 a34 34 0 0 1 68 0 v46 z" fill="#1F3B2C"/>
  </g>
</svg>
